Coordinates
version=1
nRows=14
nColumns=36
inDegrees=yes

Units are S.I. units (second, meters, Newtons, ...)
If the header above contains a line with 'inDegrees', this indicates whether rotational values are in degrees (yes) or radians (no).

endheader
time	pelvis_tilt	pelvis_list	pelvis_rotation	pelvis_tx	pelvis_ty	pelvis_tz	hip_flexion_r	hip_adduction_r	hip_rotation_r	knee_angle_r	knee_angle_r_beta	ankle_angle_r	subtalar_angle_r	mtp_angle_r	hip_flexion_l	hip_adduction_l	hip_rotation_l	knee_angle_l	knee_angle_l_beta	ankle_angle_l	subtalar_angle_l	mtp_angle_l	lumbar_extension	lumbar_bending	lumbar_rotation	arm_flex_r	arm_add_r	arm_rot_r	elbow_flex_r	pro_sup_r	arm_flex_l	arm_add_l	arm_rot_l	elbow_flex_l	pro_sup_l
      2.80000000	     -3.98296224	     -1.66663894	      4.61514213	      0.65721961	      0.94049453	      0.16814807	     17.47117752	     -3.70930381	     -1.97030405	     26.15506726	      0.45649204	     15.51249136	     -2.63336852	     -7.49999987	     11.93358052	    -11.18948433	     -7.24815953	     24.85771528	      0.43384898	     14.42090507	     -5.64123278	     -7.49999987	     -7.65701514	      2.93330054	      5.49270541	     51.73476402	      7.22261512	     62.07010062	    123.29794060	     95.52148994	     55.39726766	      2.58835985	     59.79486311	    121.45943340	    102.63694512
      2.81666670	     -2.72375347	     -1.78902499	      4.96011525	      0.66656616	      0.94533157	      0.16767645	     14.35734149	     -3.30664783	     -2.10832895	     23.50546557	      0.41024777	     14.46382230	     -3.16343365	     -7.49999987	      8.77864672	    -11.21082678	     -7.41340033	     21.96683034	      0.38339352	     13.40959139	     -5.05864859	     -7.49999987	     -7.48594112	      3.11469528	      4.85656381	     50.51333792	      7.45135601	     62.50267625	    124.45693406	     95.23939052	     54.39994844	      2.18787009	     59.11212687	    121.55752777	    102.65705002
      2.83333330	     -2.37345776	     -1.87220821	      5.34266210	      0.66528354	      0.94792517	      0.16687621	     12.74778445	     -3.08135864	     -2.26097440	     21.69611256	      0.37866860	     13.96391270	     -3.33442811	     -7.49999987	      7.10444142	    -11.09103571	     -7.22727426	     19.72638254	      0.34429032	     12.84577323	     -4.62559339	     -7.49999987	     -6.25244688	      3.25548320	      4.68126941	     49.51474189	      7.22750658	     63.03533118	    124.78333588	     95.20416025	     53.18706104	      2.18670938	     59.37946388	    121.96175812	    102.67354009
      2.85000000	     -0.66051334	     -1.77912247	      5.74482825	      0.66939053	      0.95004269	      0.16400222	      9.63632713	     -2.87446079	     -2.13739953	     19.79579558	      0.34550181	     13.09190453	     -4.12616183	     -7.49999987	      3.80996489	    -10.89526284	     -7.29726705	     17.29190684	      0.30180071	     12.21926546	     -4.32200425	     -7.49999987	     -7.05666211	      3.50758153	      3.96930190	     49.08683229	      7.68513783	     64.08859569	    125.01191480	     93.63868873	     52.31294190	      2.00224143	     58.60010586	    122.59724152	    103.03540427
      2.86666670	      0.21352586	     -1.65933993	      6.16139867	      0.66862388	      0.95832668	      0.16361022	      7.68494607	     -2.80775951	     -2.02980407	     18.32868908	      0.31989597	     12.54666670	     -4.65052061	     -7.49999987	      1.74117346	    -10.58151086	     -7.09415072	     15.21005365	      0.26546552	     11.78650683	     -4.08467024	     -7.49999987	     -7.16454121	      3.47508505	      3.76408713	     48.21278384	      7.33641760	     64.96773093	    124.87590119	     93.80437945	     51.10055232	      1.87544722	     59.24410020	    122.96033193	    103.05925888
      2.88333330	      0.82993897	     -1.50859806	      6.52787179	      0.66810415	      0.95768403	      0.16354795	      6.26204439	     -2.78535683	     -1.84052170	     17.26816850	      0.30138640	     12.23506810	     -5.11184752	     -7.49999987	      0.22037187	    -10.25736659	     -6.89147684	     13.57127816	      0.23686349	     11.44890203	     -3.97179379	     -7.49999987	     -7.21928651	      3.36652849	      3.40357668	     47.47490213	      7.09969829	     65.31872353	    124.46031781	     94.01534008	     50.41184280	      1.70422576	     59.43481820	    122.64848551	    103.59528194
      2.90000000	      1.70723559	     -1.37045271	      6.78295353	      0.68314198	      0.96948336	      0.16094821	      4.34497987	     -2.75756529	     -1.62155129	     16.02045632	      0.27960971	     12.02404424	     -5.36408903	     -7.49999987	     -1.78403682	     -9.98287302	     -6.89320237	     11.82966971	      0.20646669	     10.88259599	     -3.72233855	     -7.49999987	     -7.47365072	      3.25306446	      3.41830540	     45.30921213	      6.33261890	     66.22902526	    124.44192613	     94.16160134	     48.21928269	      1.24220964	     60.11798522	    122.22250011	    102.59579964
      2.91666670	      2.26717505	     -1.29899311	      6.99268472	      0.68292935	      0.97225417	      0.16107167	      3.02733982	     -2.67978928	     -1.49097163	     15.17523946	      0.26485789	     11.88343488	     -5.46465466	     -7.49999987	     -3.25334563	     -9.82455799	     -6.80826916	     10.47139928	      0.18276039	     10.40271138	     -3.55738953	     -7.49999987	     -7.44291328	      3.21355929	      3.55117742	     43.46248276	      5.84892488	     67.10889894	    124.30061338	     94.28331563	     46.39089736	      0.97400394	     60.96212986	    122.36119750	    102.60912007
      2.93333330	      3.15874855	     -1.17207638	      7.16957639	      0.68603364	      0.96892334	      0.15796898	      1.39745133	     -2.62770816	     -1.21710749	     14.34325724	      0.25033706	     11.84692594	     -5.85605482	     -7.49999987	     -4.97385652	     -9.65955061	     -6.72665765	      9.27456613	      0.16187172	     10.05440361	     -3.50790885	     -7.49999987	     -7.81449954	      3.15917987	      3.47077704	     42.58023793	      5.55382487	     67.63098727	    124.48258436	     94.31471709	     45.37279938	      1.05769919	     61.17657636	    122.52100019	    101.44288597
      2.95000000	      3.42189567	     -1.12759301	      7.42918915	      0.68446978	      0.96681124	      0.15768331	      0.75380246	     -2.59073859	     -1.10123770	     14.03979583	      0.24504066	     12.18783075	     -6.01254520	     -7.49999987	     -5.62820006	     -9.59275575	     -6.54069862	      8.68933622	      0.15165753	     10.05551360	     -3.49070455	     -7.49999987	     -7.53226486	      3.05841977	      3.14281567	     41.71419727	      5.35972550	     68.00607608	    124.33309263	     94.37528466	     44.68249120	      1.38676549	     61.67410354	    122.70067629	    101.48232667
      2.96666670	      4.18731200	     -0.96231874	      7.60992053	      0.68324154	      0.96156938	      0.15748133	     -0.44317268	     -2.62520645	     -1.04856902	     13.60007924	      0.23736616	     12.18230829	     -6.18419726	     -7.49999987	     -6.85915186	     -9.43183867	     -6.26682742	      7.98522271	      0.13936843	      9.62202623	     -3.79573756	     -7.49999987	     -7.95017404	      2.98248148	      3.17116473	     41.45894581	      5.29673453	     67.64978543	    124.36867989	     95.09492059	     44.78082393	      1.82752225	     61.77767039	    122.85495565	    101.52671545
      2.98333330	      4.64331441	     -0.87701992	      7.79753338	      0.68705733	      0.95432520	      0.15481097	     -1.22106562	     -2.64855653	     -0.98297882	     13.33822963	      0.23279602	     12.34842531	     -6.36616709	     -7.49999987	     -7.63210824	     -9.32655424	     -6.05907034	      7.59454356	      0.13254979	      9.47932170	     -4.17530964	     -7.49999987	     -7.77450252	      2.98664743	      2.84237536	     41.11657313	      5.40903194	     67.48277679	    124.64168350	     94.83500933	     44.50477866	      2.34994090	     61.09139395	    122.54301697	    101.18535367
      3.00000000	      5.00351937	     -0.74391187	      7.93633973	      0.68600132	      0.95503958	      0.15465998	     -1.82205333	     -2.73511340	     -0.82711326	     13.18605146	      0.23014001	     12.57616591	     -6.67186842	     -7.49999987	     -8.21756070	     -9.19360644	     -5.89524297	      7.34693312	      0.12822817	      9.39294793	     -4.50529577	     -7.49999987	     -7.70874815	      2.86273637	      2.70280334	     40.73785316	      5.16325436	     67.18816689	    124.68079409	     95.10880447	     44.22139664	      2.44824581	     61.32552722	    122.56498403	    101.58035401
      3.01666670	      5.21725695	     -0.60521655	      8.12910559	      0.68475813	      0.95617289	      0.14933413	     -2.18490026	     -2.90309186	     -0.76844747	     13.19882960	      0.23036303	     12.87081699	     -6.83120958	     -7.49999987	     -8.54755112	     -9.02321758	     -5.87300540	      7.22142702	      0.12603768	      9.47233344	     -4.52213233	     -7.49999987	     -7.59502266	      2.83973014	      2.32698822	     40.49117541	      4.77323239	     67.24355251	    124.72971582	     95.11184885	     43.70567667	      2.60577482	     61.54671491	    122.44664633	    101.59567824
